# xmcd
#
# Track frame offsets:
#	182
#	11482
#	23557
#	36380
#	50217
#	63997
#	74515
#	86422
#	100342
#	112730
#	129052
#	142490
#	152662
#	164005
#	179752
#	192627
#	208987
#	220692
#	236707
#	247155
#
# Disc length: 3464 seconds
#
# Revision: 1
# Processed by: cddbd v1.5.1PL2 Copyright (c) Steve Scherf et al.
# Submitted via: audiograbber 1.83.01
#
DISCID=320d8614
DTITLE=Varios - The Original Versions Of The Famous Hits
DYEAR=1994
DGENRE=Pop
TTITLE0=Buck Owens - Cryin' Time
TTITLE1=Sam Cooke - Bring It On Home To Me
TTITLE2=The Contours - Do You Love Me
TTITLE3=Bing Crosby and Grace Kelly - True Love
TTITLE4=George Jones - A Good Year For The Roses
TTITLE5=Screamin' Jay Hawkins - I Put A Spell On You
TTITLE6=The Impressions - People Get Ready
TTITLE7=B.J. Thomas - I Just Can't Help Believing
TTITLE8=Bob and Earl - Harlem Shuffle
TTITLE9=Tony Joe White - Rainy Night In Georgia
TTITLE10=Shep and The Limelites - Daddy's Home
TTITLE11=Betty Everett - The Shoop Shoop Song
TTITLE12=John Lee Hooker - Boom Boom
TTITLE13=Harold Melvin and The Blue Notes - If You Don't Know Me By Now
TTITLE14=Eric Donaldson - Cherry Oh Baby
TTITLE15=Gene Pitney - Something's Gotten Hold Of My Heart
TTITLE16=Enma Franklin - Piece Of My Heart
TTITLE17=The Chi-Lites - Oh Girl
TTITLE18=Dale Hawkins - Susie Q
TTITLE19=Tommy James and The Shondells - Mony Mony
EXTD=
EXTT0=
EXTT1=
EXTT2=
EXTT3=
EXTT4=
EXTT5=
EXTT6=
EXTT7=
EXTT8=
EXTT9=
EXTT10=
EXTT11=
EXTT12=
EXTT13=
EXTT14=
EXTT15=
EXTT16=
EXTT17=
EXTT18=
EXTT19=
PLAYORDER=
